<?xml version="1.0" encoding="UTF-8"?><svg id="Layer_1" xmlns="http://www.w3.org/2000/svg" viewBox="0 0 175.75 73.55"><defs><style>.cls-1{fill-rule:evenodd;}.cls-1,.cls-2{fill:#2f548e;stroke-width:0px;}</style></defs><path class="cls-2" d="M110.11,41.21l-14.96-15.51,5.62-5.59,20.34,21.09h-11ZM40.65,41.21h-11.23l19.24-19.13,5.49,5.7-13.51,13.43h0ZM60.62,35l27.79-27.64,5.5,5.71-27.8,27.64-5.5-5.7h0ZM65.34,41.21h-10.96l5.6-5.56,5.36,5.56h0ZM53.17,41.21h-11.23l26.64-26.49,5.49,5.7-20.9,20.79h0ZM83.11,41.21l-7.85-8.15,5.62-5.58,13.24,13.73h-11ZM137.11,41.21l-28.83-29.92-21.32,21.2-5.5-5.7L108.4,0l39.71,41.21h-11ZM80.05,39.35l-1.86,1.86h-11.23l7.6-7.56,5.5,5.7h0Z"/><path class="cls-1" d="M99.5,55.61c-1.42,0-2.61,1.25-2.86,3.4h5.53c-.05-2.18-1.09-3.4-2.67-3.4Z"/><path class="cls-1" d="M119.92,58.09h-.93v6.21c0,1.88.76,2.7,2.72,2.7,2.42,0,4.33-1.91,4.33-4.38,0-2.72-2.31-4.52-6.13-4.52Z"/><path class="cls-1" d="M85.1,55.69c-2.26,0-3.65,1.88-3.65,5.34s1.5,5.31,3.98,5.31c1.12,0,2.04-.35,3.1-1.12v-5.77c0-2.34-1.31-3.76-3.43-3.76Z"/><path class="cls-1" d="M125.31,53.32c0-2.18-2.04-3.95-5.17-3.95h-.22c-.74,0-.93.03-.93.54v7.27h1.8c2.78,0,4.52-1.55,4.52-3.87Z"/><path class="cls-1" d="M27.87,55.69c-2.26,0-3.65,1.88-3.65,5.34s1.5,5.31,3.98,5.31c1.12,0,2.04-.35,3.1-1.12v-5.77c0-2.34-1.31-3.76-3.43-3.76Z"/><path class="cls-1" d="M42.27,55.61c-1.42,0-2.61,1.25-2.86,3.4h5.53c-.05-2.18-1.09-3.4-2.67-3.4Z"/><path class="cls-1" d="M60.37,64.37c0,1.17.79,1.99,1.93,1.99,1.31,0,2.53-.9,2.53-1.82v-3.48c-3.02.9-4.47,1.77-4.47,3.32Z"/><polygon class="cls-1" points="7.99 58.79 13.65 58.79 10.9 50.57 7.99 58.79"/><path class="cls-1" d="M134.05,64.37c0,1.17.79,1.99,1.93,1.99,1.31,0,2.53-.9,2.53-1.82v-3.48c-3.02.9-4.47,1.77-4.47,3.32Z"/><path class="cls-1" d="M0,44.54v29.01h175.75v-29.01H0ZM74.18,48.12c.76,0,1.42.63,1.42,1.42s-.63,1.42-1.42,1.42-1.42-.63-1.42-1.42.63-1.42,1.42-1.42ZM20.81,67.83h-7.13l.03-.82c1.44-.22,2.07-.44,2.07-1.33,0-.38-.11-1.03-.33-1.66l-1.5-4.36h-6.29l-1.28,3.7c-.14.38-.25.95-.25,1.47,0,1.25.54,1.74,2.15,2.18v.82H2.49v-.82c1.69-.27,2.15-1.42,2.86-3.43l5.06-14.29-.25-.74h2.53l5.42,15.3c.65,1.88,1.31,2.94,2.7,3.16v.82ZM35.46,67.42l-4.14.66-.14-1.96c-1.36,1.36-2.59,1.99-4.22,1.99-2.89,0-4.87-2.32-4.87-5.94,0-4.11,2.8-7.32,6.32-7.32,1.03,0,1.96.24,2.89.73v-4.68l-1.93-1.09v-.19l3.84-1.44h.25v16.55c0,1.52.19,2.04,1.33,2.04.19,0,.44-.03.68-.05v.71ZM43.44,66.2c1.2,0,2.48-.6,3.59-1.72l.49.44c-1.23,2.04-3.08,3.16-5.09,3.16-2.89,0-5.17-2.51-5.17-6.43s2.48-6.83,5.36-6.83c2.72,0,4.66,1.82,4.93,5.01h-8.22c-.03.27-.03.54-.03.76,0,3.4,1.82,5.61,4.14,5.61ZM55.72,67.83h-6.13v-.68c1.63-.14,2.01-.82,2.01-2.64v-13.61l-1.88-1.09v-.19l3.84-1.44h.25v16.47c0,1.66.38,2.37,1.91,2.5v.68ZM66.64,68.08c-1.01,0-1.58-.66-1.8-2.05-1.33,1.36-2.5,2.05-3.92,2.05-1.58,0-2.67-1.23-2.67-2.97,0-2.37,2.1-3.54,6.59-4.85v-2.04c0-1.66-.82-2.48-2.45-2.48-1.12,0-1.99.63-1.99,1.42,0,.44.25,1.01.65,1.8l-1.72.82c-.38-.54-.6-1.12-.6-1.74,0-1.82,1.88-3.19,4.63-3.19,2.53,0,3.62,1.31,3.62,3.95v6.26c0,.84.11,1.25.6,1.25.22,0,.52-.16.98-.49l.03.68c-.57,1.06-1.25,1.58-1.96,1.58ZM77.15,67.83h-6.37v-.68c1.77-.11,2.26-.79,2.26-2.64v-6.94l-1.88-1.09v-.19l3.84-1.44h.27v9.8c0,1.66.35,2.37,1.88,2.5v.68ZM92.69,67.42l-4.14.66-.14-1.96c-1.36,1.36-2.59,1.99-4.22,1.99-2.89,0-4.87-2.32-4.87-5.94,0-4.11,2.8-7.32,6.32-7.32,1.03,0,1.96.24,2.89.73v-4.68l-1.93-1.09v-.19l3.84-1.44h.25v16.55c0,1.52.19,2.04,1.33,2.04.19,0,.44-.03.68-.05v.71ZM100.67,66.2c1.2,0,2.48-.6,3.59-1.72l.49.44c-1.23,2.04-3.08,3.16-5.09,3.16-2.89,0-5.17-2.51-5.17-6.43s2.48-6.83,5.36-6.83c2.72,0,4.66,1.82,4.93,5.01h-8.22c-.03.27-.03.54-.03.76,0,3.4,1.82,5.61,4.14,5.61ZM121.55,67.83h-7.92v-.82c2.1-.11,2.78-.82,2.78-2.72v-12.22c0-1.91-.68-2.59-2.78-2.7v-.82h7.32c4.63,0,7.16,1.77,7.16,4.55,0,2.34-1.69,4.11-4.63,4.49v.08c3.4.27,5.47,2.29,5.47,4.96,0,3.27-2.53,5.2-7.41,5.2ZM140.31,68.08c-1.01,0-1.58-.66-1.8-2.05-1.33,1.36-2.5,2.05-3.92,2.05-1.58,0-2.67-1.23-2.67-2.97,0-2.37,2.1-3.54,6.59-4.85v-2.04c0-1.66-.82-2.48-2.45-2.48-1.12,0-1.99.63-1.99,1.42,0,.44.25,1.01.65,1.8l-1.71.82c-.38-.54-.6-1.12-.6-1.74,0-1.82,1.88-3.19,4.63-3.19,2.53,0,3.62,1.31,3.62,3.95v6.26c0,.84.11,1.25.6,1.25.22,0,.52-.16.98-.49l.03.68c-.57,1.06-1.25,1.58-1.96,1.58ZM158.01,67.83h-5.94v-.68c1.5-.14,1.91-.84,1.91-2.5v-5.39c0-1.82-.6-2.67-2.15-2.67-1.06,0-2.15.44-3.16,1.25v6.81c0,1.66.38,2.37,1.91,2.5v.68h-6.07v-.68c1.63-.14,2.01-.82,2.01-2.64v-6.94l-1.93-1.09v-.19l3.84-1.44h.25v2.18c1.25-1.44,2.59-2.18,4.03-2.18,2.29,0,3.4,1.5,3.4,4.47v5.34c0,1.66.38,2.37,1.91,2.5v.68ZM165.93,67.83h-6.04v-.68c1.63-.14,2.01-.82,2.01-2.65v-13.62l-1.96-1.08v-.19l3.84-1.44h.24v16.47c0,1.67.38,2.37,1.91,2.51v.68ZM173.47,67.83h-2.12l-6.94-6.63,2.48-2.29c.98-.93,1.61-1.47,1.61-2.13s-.46-.9-1.5-1.01v-.68h6.13v.68h-.24c-1.39,0-2.21.65-3.24,1.61l-3.32,3.08,7.16,6.69v.68Z"/></svg>